<svg width="14" height="12" viewBox="0 0 14 12" fill="none"
    xmlns="http://www.w3.org/2000/svg">
    <path d="M9.66671 0H4.33337C3.59804 0 3.00004 0.598 3.00004 1.33333V10.6667C3.00004 11.402 3.59804 12 4.33337 12H9.66671C10.402 12 11 11.402 11 10.6667V1.33333C11 0.598 10.402 0 9.66671 0ZM0.333374 2.66667V9.33333C0.333374 10.0687 0.931374 10.6667 1.66671 10.6667V1.33333C0.931374 1.33333 0.333374 1.93133 0.333374 2.66667ZM12.3334 1.33333V10.6667C13.0687 10.6667 13.6667 10.0687 13.6667 9.33333V2.66667C13.6667 1.93133 13.0687 1.33333 12.3334 1.33333Z" fill="black"/>
</svg>
