<svg width="14" height="14" viewBox="0 0 14 14" fill="none"
    xmlns="http://www.w3.org/2000/svg">
    <path d="M7.076 0.140463C6.95897 0.0494262 6.81494 0 6.66667 0C6.5184 0 6.37436 0.0494262 6.25733 0.140463L0.772 4.40713C0.53144 4.59426 0.33683 4.83389 0.203032 5.10773C0.0692342 5.38156 -0.000210967 5.68235 4.81422e-07 5.98713V12.0005C4.81422e-07 12.3541 0.140476 12.6932 0.390525 12.9433C0.640573 13.1933 0.979712 13.3338 1.33333 13.3338H4C4.35362 13.3338 4.69276 13.1933 4.94281 12.9433C5.19286 12.6932 5.33333 12.3541 5.33333 12.0005V8.00046H8V12.0005C8 12.3541 8.14048 12.6932 8.39053 12.9433C8.64057 13.1933 8.97971 13.3338 9.33333 13.3338H12C12.3536 13.3338 12.6928 13.1933 12.9428 12.9433C13.1929 12.6932 13.3333 12.3541 13.3333 12.0005V5.98713C13.3334 5.68224 13.2637 5.38138 13.1297 5.10754C12.9957 4.8337 12.8008 4.59412 12.56 4.40713L7.076 0.140463Z" fill="black"/>
</svg>
