<svg width="7" height="10" viewBox="0 0 7 10" fill="none" xmlns="http://www.w3.org/2000/svg">
<path d="M1.625 2.1875C1.87364 2.1875 2.1121 2.08873 2.28791 1.91291C2.46373 1.7371 2.5625 1.49864 2.5625 1.25C2.5625 1.00136 2.46373 0.762903 2.28791 0.587087C2.1121 0.411272 1.87364 0.3125 1.625 0.3125C1.37636 0.3125 1.1379 0.411272 0.962088 0.587087C0.786272 0.762903 0.6875 1.00136 0.6875 1.25C0.6875 1.49864 0.786272 1.7371 0.962088 1.91291C1.1379 2.08873 1.37636 2.1875 1.625 2.1875ZM1.625 5.9375C1.87364 5.9375 2.1121 5.83873 2.28791 5.66291C2.46373 5.4871 2.5625 5.24864 2.5625 5C2.5625 4.75136 2.46373 4.5129 2.28791 4.33709C2.1121 4.16127 1.87364 4.0625 1.625 4.0625C1.37636 4.0625 1.1379 4.16127 0.962088 4.33709C0.786272 4.5129 0.6875 4.75136 0.6875 5C0.6875 5.24864 0.786272 5.4871 0.962088 5.66291C1.1379 5.83873 1.37636 5.9375 1.625 5.9375ZM2.5625 8.75C2.5625 8.99864 2.46373 9.2371 2.28791 9.41291C2.1121 9.58873 1.87364 9.6875 1.625 9.6875C1.37636 9.6875 1.1379 9.58873 0.962088 9.41291C0.786272 9.2371 0.6875 8.99864 0.6875 8.75C0.6875 8.50136 0.786272 8.2629 0.962088 8.08709C1.1379 7.91127 1.37636 7.8125 1.625 7.8125C1.87364 7.8125 2.1121 7.91127 2.28791 8.08709C2.46373 8.2629 2.5625 8.50136 2.5625 8.75ZM5.375 2.1875C5.62364 2.1875 5.8621 2.08873 6.03791 1.91291C6.21373 1.7371 6.3125 1.49864 6.3125 1.25C6.3125 1.00136 6.21373 0.762903 6.03791 0.587087C5.8621 0.411272 5.62364 0.3125 5.375 0.3125C5.12636 0.3125 4.8879 0.411272 4.71209 0.587087C4.53627 0.762903 4.4375 1.00136 4.4375 1.25C4.4375 1.49864 4.53627 1.7371 4.71209 1.91291C4.8879 2.08873 5.12636 2.1875 5.375 2.1875ZM6.3125 5C6.3125 5.24864 6.21373 5.4871 6.03791 5.66291C5.8621 5.83873 5.62364 5.9375 5.375 5.9375C5.12636 5.9375 4.8879 5.83873 4.71209 5.66291C4.53627 5.4871 4.4375 5.24864 4.4375 5C4.4375 4.75136 4.53627 4.5129 4.71209 4.33709C4.8879 4.16127 5.12636 4.0625 5.375 4.0625C5.62364 4.0625 5.8621 4.16127 6.03791 4.33709C6.21373 4.5129 6.3125 4.75136 6.3125 5ZM5.375 9.6875C5.62364 9.6875 5.8621 9.58873 6.03791 9.41291C6.21373 9.2371 6.3125 8.99864 6.3125 8.75C6.3125 8.50136 6.21373 8.2629 6.03791 8.08709C5.8621 7.91127 5.62364 7.8125 5.375 7.8125C5.12636 7.8125 4.8879 7.91127 4.71209 8.08709C4.53627 8.2629 4.4375 8.50136 4.4375 8.75C4.4375 8.99864 4.53627 9.2371 4.71209 9.41291C4.8879 9.58873 5.12636 9.6875 5.375 9.6875Z" fill="#343A40"/>

</svg>
