<svg width="25" height="21" viewBox="0 0 25 21" fill="none"
    xmlns="http://www.w3.org/2000/svg">
    <path d="M16.3105 17.8675L13.8892 15.4463C13.3379 15.643 12.7439 15.7501 12.125 15.7501C9.2255 15.7501 6.875 13.3996 6.875 10.5001C6.875 9.88112 6.98211 9.28719 7.17879 8.73581L4.08668 5.64369C1.53307 7.91859 0.125 10.5001 0.125 10.5001C0.125 10.5001 4.625 18.7501 12.125 18.7501C13.6481 18.7501 15.0474 18.4098 16.3105 17.8675Z" fill="black" fill-opacity="0.5"/>
    <path d="M7.93951 3.13256C9.20258 2.59029 10.6019 2.25006 12.125 2.25006C19.625 2.25006 24.125 10.5001 24.125 10.5001C24.125 10.5001 22.7169 13.0815 20.1633 15.3564L17.0712 12.2643C17.2679 11.7129 17.375 11.119 17.375 10.5001C17.375 7.60056 15.0245 5.25006 12.125 5.25006C11.5061 5.25006 10.9122 5.35716 10.3608 5.55384L7.93951 3.13256Z" fill="black" fill-opacity="0.5"/>
    <path d="M8.41227 9.96929C8.38771 10.1427 8.375 10.3199 8.375 10.5001C8.375 12.5711 10.0539 14.2501 12.125 14.2501C12.3052 14.2501 12.4824 14.2374 12.6558 14.2128L8.41227 9.96929Z" fill="black" fill-opacity="0.5"/>
    <path d="M15.8377 11.0308L11.5943 6.78732C11.7676 6.76276 11.9448 6.75006 12.125 6.75006C14.1961 6.75006 15.875 8.42899 15.875 10.5001C15.875 10.6802 15.8623 10.8574 15.8377 11.0308Z" fill="black" fill-opacity="0.5"/>
    <path d="M20.5947 20.0304L2.59467 2.03039L3.65533 0.969727L21.6553 18.9697L20.5947 20.0304Z" fill="black" fill-opacity="0.5"/>
</svg>
