<svg width="17" height="14" viewBox="0 0 17 14" fill="none"
    xmlns="http://www.w3.org/2000/svg">
    <path d="M8.98151 0.566422C8.53763 -0.188807 7.46546 -0.188807 7.02158 0.566422L0.164626 12.2331C-0.292407 13.0107 0.256279 14 1.14459 14H14.8585C15.7468 14 16.2955 13.0107 15.8385 12.2331L8.98151 0.566422ZM8 4C8.53541 4 8.95377 4.46228 8.9005 4.99504L8.54975 8.50248C8.52151 8.78492 8.28384 9 8 9C7.71616 9 7.47849 8.78492 7.45025 8.50248L7.0995 4.99504C7.04623 4.46229 7.46459 4 8 4ZM8.00154 10C8.55383 10 9.00154 10.4477 9.00154 11C9.00154 11.5523 8.55383 12 8.00154 12C7.44926 12 7.00154 11.5523 7.00154 11C7.00154 10.4477 7.44926 10 8.00154 10Z" fill="#343A40"/>
</svg>
