<svg width="14" height="14" viewBox="0 0 14 14" fill="none"
    xmlns="http://www.w3.org/2000/svg">
    <path d="M1 0C0.447715 0 0 0.447715 0 1V5.58579C0 5.851 0.105356 6.10536 0.292892 6.29289L7.29289 13.2929C7.68342 13.6834 8.31658 13.6834 8.70711 13.2929L13.2929 8.70711C13.6834 8.31658 13.6834 7.68342 13.2929 7.29289L6.29289 0.292893C6.10536 0.105357 5.851 0 5.58579 0H1ZM5 3.5C5 4.32843 4.32843 5 3.5 5C2.67157 5 2 4.32843 2 3.5C2 2.67157 2.67157 2 3.5 2C4.32843 2 5 2.67157 5 3.5Z" fill="#343A40"/>
</svg>
