<svg width="18" height="19" viewBox="0 0 18 19" fill="none"
    xmlns="http://www.w3.org/2000/svg">
    <path d="M2.125 1.25C1.43464 1.25 0.875 1.80964 0.875 2.5V3.75C0.875 4.44036 1.43464 5 2.125 5H2.75V16.25C2.75 17.6307 3.86929 18.75 5.25 18.75H12.75C14.1307 18.75 15.25 17.6307 15.25 16.25V5H15.875C16.5654 5 17.125 4.44036 17.125 3.75V2.5C17.125 1.80964 16.5654 1.25 15.875 1.25H11.5C11.5 0.559644 10.9404 0 10.25 0H7.75C7.05964 0 6.5 0.559644 6.5 1.25H2.125ZM5.875 6.25C6.22018 6.25 6.5 6.52982 6.5 6.875V15.625C6.5 15.9702 6.22018 16.25 5.875 16.25C5.52982 16.25 5.25 15.9702 5.25 15.625L5.25 6.875C5.25 6.52982 5.52982 6.25 5.875 6.25ZM9 6.25C9.34518 6.25 9.625 6.52982 9.625 6.875V15.625C9.625 15.9702 9.34518 16.25 9 16.25C8.65482 16.25 8.375 15.9702 8.375 15.625V6.875C8.375 6.52982 8.65482 6.25 9 6.25ZM12.75 6.875V15.625C12.75 15.9702 12.4702 16.25 12.125 16.25C11.7798 16.25 11.5 15.9702 11.5 15.625V6.875C11.5 6.52982 11.7798 6.25 12.125 6.25C12.4702 6.25 12.75 6.52982 12.75 6.875Z" fill="#343A40"/>
</svg>
