<svg width="16" height="14" viewBox="0 0 16 14" fill="none"
    xmlns="http://www.w3.org/2000/svg">
    <path d="M4.50153 8C5.32995 8 6.00153 7.32843 6.00153 6.5C6.00153 5.67157 5.32995 5 4.50153 5C3.6731 5 3.00153 5.67157 3.00153 6.5C3.00153 7.32843 3.6731 8 4.50153 8Z" fill="#343A40"/>
    <path d="M14.0015 12C14.0015 13.1046 13.1061 14 12.0015 14H2.00153C0.896956 14 0.00152588 13.1046 0.00152588 12V4C0.00152588 2.89594 0.896124 2.00083 1.99998 2C1.99998 0.895431 2.89542 0 3.99998 0H14C15.1046 0 16 0.895431 16 2V10C16 11.1041 15.1054 11.9992 14.0015 12ZM14 1H3.99998C3.4477 1 2.99998 1.44772 2.99998 2L12.0015 2C13.1061 2 14.0015 2.89543 14.0015 4V11C14.5531 10.9992 15 10.5518 15 10V2C15 1.44772 14.5523 1 14 1ZM2.00153 3C1.44924 3 1.00153 3.44772 1.00153 4V12L3.64797 9.64646C3.8165 9.47793 4.08056 9.45178 4.27888 9.58399L6.93782 11.3566L10.648 7.64646C10.8002 7.49428 11.0326 7.45655 11.2251 7.5528L13.0015 9.50001V4C13.0015 3.44772 12.5538 3 12.0015 3H2.00153Z" fill="#343A40"/>
</svg>
