<svg width="30" height="30" viewBox="0 0 30 30" fill="none"
    xmlns="http://www.w3.org/2000/svg">
    <path d="M2.83398 7.70065C2.83398 6.40993 3.34672 5.17208 4.2594 4.2594C5.17207 3.34672 6.40993 2.83398 7.70065 2.83398H22.3006C23.5914 2.83398 24.8292 3.34672 25.7419 4.2594C26.6546 5.17208 27.1673 6.40993 27.1673 7.70065V22.3007C27.1673 23.5914 26.6546 24.8292 25.7419 25.7419C24.8292 26.6546 23.5914 27.1673 22.3006 27.1673H7.70065C6.40993 27.1673 5.17207 26.6546 4.2594 25.7419C3.34672 24.8292 2.83398 23.5914 2.83398 22.3007V7.70065Z" stroke="#343A40" stroke-width="2" stroke-linecap="round" stroke-linejoin="round"/>
    <path d="M10.7419 13.7835C12.4217 13.7835 13.7835 12.4217 13.7835 10.7419C13.7835 9.062 12.4217 7.7002 10.7419 7.7002C9.062 7.7002 7.7002 9.062 7.7002 10.7419C7.7002 12.4217 9.062 13.7835 10.7419 13.7835Z" stroke="#343A40" stroke-width="2" stroke-linecap="round" stroke-linejoin="round"/>
    <path d="M18.0735 15.7563L7.7002 27.1674H22.462C23.7098 27.1674 24.9065 26.6717 25.7888 25.7894C26.6712 24.907 27.1669 23.7103 27.1669 22.4625V22.3007C27.1669 21.7338 26.9539 21.516 26.5707 21.0962L21.6675 15.749C21.439 15.4997 21.161 15.3008 20.8514 15.1649C20.5417 15.0291 20.2071 14.9593 19.8689 14.96C19.5307 14.9607 19.1964 15.0318 18.8873 15.1689C18.5782 15.306 18.301 15.5061 18.0735 15.7563V15.7563Z" stroke="#343A40" stroke-width="2" stroke-linecap="round" stroke-linejoin="round"/>
</svg>
