<svg width="13" height="13" viewBox="0 0 13 13" fill="none"
    xmlns="http://www.w3.org/2000/svg">
    <path d="M11.9609 6H8.02734V5.30859L10.6055 1.58984V1.53516H8.09766V0.667969H11.8828V1.35938L9.31641 5.07812V5.13281H11.9609V6Z" fill="#343A40"/>
    <path fill-rule="evenodd" clip-rule="evenodd" d="M9.08203 11.6289L8.66406 13H7.59766L9.38672 7.66797H10.6211L12.4023 13H11.2812L10.8633 11.6289H9.08203ZM10.6523 10.8438L10 8.6875H9.95312L9.30078 10.8438H10.6523Z" fill="#343A40"/>
    <path d="M3.5 1.5C3.5 1.22386 3.27614 1 3 1C2.72386 1 2.5 1.22386 2.5 1.5L2.5 11.2929L1.35355 10.1464C1.15829 9.95118 0.841709 9.95118 0.646447 10.1464C0.451184 10.3417 0.451184 10.6583 0.646447 10.8536L2.6456 12.8527L2.65303 12.86C2.69942 12.9048 2.75232 12.9388 2.80861 12.9621C2.86756 12.9865 2.9322 13 3 13C3.06779 13 3.13244 12.9865 3.19139 12.9621C3.25036 12.9377 3.30561 12.9015 3.35355 12.8536L5.35355 10.8536C5.54882 10.6583 5.54882 10.3417 5.35355 10.1464C5.15829 9.95118 4.84171 9.95118 4.64645 10.1464L3.5 11.2929L3.5 1.5Z" fill="#343A40"/>
</svg>
