<svg width="13" height="13" viewBox="0 0 13 13" fill="none"
    xmlns="http://www.w3.org/2000/svg">
    <path fill-rule="evenodd" clip-rule="evenodd" d="M10.3594 6.09766C9.22266 6.09766 8.65234 5.44141 8.59766 4.82031H9.60156C9.66016 5.04297 9.94531 5.26953 10.375 5.26953C11.1992 5.26953 11.5391 4.44141 11.5078 3.41406H11.4492C11.3008 3.80469 10.8789 4.15625 10.1875 4.15625C9.27734 4.15625 8.46875 3.54297 8.46875 2.39844C8.46875 1.25 9.31641 0.5625 10.4414 0.5625C11.5312 0.5625 12.5039 1.19922 12.5039 3.25C12.5039 5.11719 11.7812 6.09766 10.3594 6.09766ZM10.4219 3.36328C10.9258 3.36328 11.3555 3.02734 11.3555 2.39062C11.3555 1.75781 10.957 1.38281 10.4141 1.38281C9.89453 1.38281 9.48828 1.75781 9.48828 2.38281C9.48828 3.02344 9.90625 3.36328 10.4219 3.36328Z" fill="#343A40"/>
    <path d="M11.4375 7.66797V13H10.3906V8.68359H10.3398L9.12891 9.54297V8.57422L10.3906 7.66797H11.4375Z" fill="#343A40"/>
    <path d="M3.5 1.5C3.5 1.22386 3.27614 1 3 1C2.72386 1 2.5 1.22386 2.5 1.5L2.5 11.2929L1.35355 10.1464C1.15829 9.95118 0.841709 9.95118 0.646447 10.1464C0.451184 10.3417 0.451184 10.6583 0.646447 10.8536L2.6456 12.8527L2.65303 12.86C2.69942 12.9048 2.75232 12.9388 2.80861 12.9621C2.86756 12.9865 2.9322 13 3 13C3.06779 13 3.13244 12.9865 3.19139 12.9621C3.25036 12.9377 3.30561 12.9015 3.35355 12.8536L5.35355 10.8536C5.54882 10.6583 5.54882 10.3417 5.35355 10.1464C5.15829 9.95118 4.84171 9.95118 4.64645 10.1464L3.5 11.2929L3.5 1.5Z" fill="#343A40"/>
</svg>
