<svg width="12" height="16" viewBox="0 0 12 16" fill="none"
    xmlns="http://www.w3.org/2000/svg">
    <path fill-rule="evenodd" clip-rule="evenodd" d="M0 15.2328V1.96552C0 0.879993 0.89543 0 2 0H10C11.1046 0 12 0.879992 12 1.96552V15.2328C12 15.4062 11.907 15.5668 11.7552 15.6553C11.6035 15.7438 11.4155 15.7472 11.2606 15.6641L6 12.8442L0.739426 15.6641C0.584505 15.7472 0.396513 15.7438 0.244768 15.6553C0.0930228 15.5668 0 15.4062 0 15.2328ZM4.85355 5.14645C4.65829 4.95118 4.34171 4.95118 4.14645 5.14645C3.95118 5.34171 3.95118 5.65829 4.14645 5.85355L5.29289 7L4.14645 8.14645C3.95118 8.34171 3.95118 8.65829 4.14645 8.85355C4.34171 9.04882 4.65829 9.04882 4.85355 8.85355L6 7.70711L7.14645 8.85355C7.34171 9.04882 7.65829 9.04882 7.85355 8.85355C8.04882 8.65829 8.04882 8.34171 7.85355 8.14645L6.70711 7L7.85355 5.85355C8.04882 5.65829 8.04882 5.34171 7.85355 5.14645C7.65829 4.95118 7.34171 4.95118 7.14645 5.14645L6 6.29289L4.85355 5.14645Z" fill="#343A40"/>
</svg>
